<svg width="87" height="59" viewBox="0 0 87 59" fill="none" xmlns="http://www.w3.org/2000/svg">
<g filter="url(#filter0_d_1900_459)">
<path d="M5.92754 1.5C3.20613 1.5 1 3.70613 1 6.42754L1 42.5725C1 45.2939 3.20613 47.5 5.92754 47.5C8.64894 47.5 10.8551 45.2939 10.8551 42.5725L10.8551 6.42754C10.8551 3.70613 8.64894 1.5 5.92754 1.5Z" fill="#FF2D70"/>
<path d="M18.5428 1.5C15.3175 1.5 12.7029 4.11463 12.7029 7.33993L12.7029 42.8804C12.7029 45.4318 14.7711 47.5 17.3225 47.5C19.8738 47.5 21.942 45.4318 21.942 42.8804V38.6548C21.942 33.3063 29.1127 31.5433 31.5927 36.282L32.1674 37.3801C32.6971 38.3921 33.7448 39.0263 34.887 39.0263C36.5823 39.0263 37.9565 40.4006 37.9565 42.0958V43.2632C37.9565 45.6031 39.8534 47.5 42.1934 47.5H43.192C46.0835 47.5 48.4275 45.156 48.4275 42.2645L48.4275 23.4372C48.4275 23.3401 48.4505 23.2444 48.4945 23.1578C48.7229 22.709 49.3641 22.709 49.5924 23.1578C49.6365 23.2444 49.6594 23.3401 49.6594 23.4372L49.6594 42.2645C49.6594 45.156 52.0034 47.5 54.8949 47.5H56.4989C58.5045 47.5 60.1304 45.8741 60.1304 43.8684V43.3072C60.1304 41.6115 61.5051 40.2368 63.2008 40.2368C64.3426 40.2368 65.3901 39.6033 65.9202 38.592L66.4153 37.6478C68.76 33.1752 75.529 34.8419 75.529 39.8918V42.2645C75.529 45.156 77.873 47.5 80.7645 47.5C83.656 47.5 86 45.156 86 42.2645V7.63348C86 4.24605 83.2539 1.5 79.8665 1.5C77.5795 1.5 75.4824 2.77243 74.4263 4.80098L65.0933 22.7264C64.0798 24.673 61.2685 24.5953 60.3641 22.5957C60.2101 22.2551 60.1304 21.8856 60.1304 21.5118V7.60908C60.1304 4.23513 57.3953 1.5 54.0214 1.5L50.6965 1.5C50.4381 1.5 50.2016 1.64503 50.0844 1.87531C49.8739 2.28902 49.3221 2.37905 48.991 2.0537L48.7117 1.77921C48.5296 1.60027 48.2845 1.5 48.0292 1.5L45.3875 1.5C41.2835 1.5 37.9565 4.82696 37.9565 8.93098V23.039C37.9565 23.2052 37.933 23.3704 37.8866 23.53C37.4526 25.0228 35.437 25.2593 34.6692 23.9075L23.6208 4.4557C22.5831 2.62871 20.644 1.5 18.5428 1.5Z" fill="#FF2D70"/>
<path d="M5.92754 1.5C3.20613 1.5 1 3.70613 1 6.42754L1 42.5725C1 45.2939 3.20613 47.5 5.92754 47.5C8.64894 47.5 10.8551 45.2939 10.8551 42.5725L10.8551 6.42754C10.8551 3.70613 8.64894 1.5 5.92754 1.5Z" stroke="black" stroke-width="2"/>
<path d="M18.5428 1.5C15.3175 1.5 12.7029 4.11463 12.7029 7.33993L12.7029 42.8804C12.7029 45.4318 14.7711 47.5 17.3225 47.5C19.8738 47.5 21.942 45.4318 21.942 42.8804V38.6548C21.942 33.3063 29.1127 31.5433 31.5927 36.282L32.1674 37.3801C32.6971 38.3921 33.7448 39.0263 34.887 39.0263C36.5823 39.0263 37.9565 40.4006 37.9565 42.0958V43.2632C37.9565 45.6031 39.8534 47.5 42.1934 47.5H43.192C46.0835 47.5 48.4275 45.156 48.4275 42.2645L48.4275 23.4372C48.4275 23.3401 48.4505 23.2444 48.4945 23.1578C48.7229 22.709 49.3641 22.709 49.5924 23.1578C49.6365 23.2444 49.6594 23.3401 49.6594 23.4372L49.6594 42.2645C49.6594 45.156 52.0034 47.5 54.8949 47.5H56.4989C58.5045 47.5 60.1304 45.8741 60.1304 43.8684V43.3072C60.1304 41.6115 61.5051 40.2368 63.2008 40.2368C64.3426 40.2368 65.3901 39.6033 65.9202 38.592L66.4153 37.6478C68.76 33.1752 75.529 34.8419 75.529 39.8918V42.2645C75.529 45.156 77.873 47.5 80.7645 47.5C83.656 47.5 86 45.156 86 42.2645V7.63348C86 4.24605 83.2539 1.5 79.8665 1.5C77.5795 1.5 75.4824 2.77243 74.4263 4.80098L65.0933 22.7264C64.0798 24.673 61.2685 24.5953 60.3641 22.5957C60.2101 22.2551 60.1304 21.8856 60.1304 21.5118V7.60908C60.1304 4.23513 57.3953 1.5 54.0214 1.5L50.6965 1.5C50.4381 1.5 50.2016 1.64503 50.0844 1.87531C49.8739 2.28902 49.3221 2.37905 48.991 2.0537L48.7117 1.77921C48.5296 1.60027 48.2845 1.5 48.0292 1.5L45.3875 1.5C41.2835 1.5 37.9565 4.82696 37.9565 8.93098V23.039C37.9565 23.2052 37.933 23.3704 37.8866 23.53C37.4526 25.0228 35.437 25.2593 34.6692 23.9075L23.6208 4.4557C22.5831 2.62871 20.644 1.5 18.5428 1.5Z" stroke="black" stroke-width="2"/>
</g>
<defs>
<filter id="filter0_d_1900_459" x="0" y="0.5" width="87" height="58" filterUnits="userSpaceOnUse" color-interpolation-filters="sRGB">
<feFlood flood-opacity="0" result="BackgroundImageFix"/>
<feColorMatrix in="SourceAlpha" type="matrix" values="0 0 0 0 0 0 0 0 0 0 0 0 0 0 0 0 0 0 127 0" result="hardAlpha"/>
<feOffset dy="10"/>
<feComposite in2="hardAlpha" operator="out"/>
<feColorMatrix type="matrix" values="0 0 0 0 0 0 0 0 0 0 0 0 0 0 0 0 0 0 1 0"/>
<feBlend mode="normal" in2="BackgroundImageFix" result="effect1_dropShadow_1900_459"/>
<feBlend mode="normal" in="SourceGraphic" in2="effect1_dropShadow_1900_459" result="shape"/>
</filter>
</defs>
</svg>
